<?xml version="1.0" standalone="no"?>
<!DOCTYPE svg PUBLIC "-//W3C//DTD SVG 20010904//EN"
 "http://www.w3.org/TR/2001/REC-SVG-20010904/DTD/svg10.dtd">
<svg version="1.0" xmlns="http://www.w3.org/2000/svg"
 width="1024.000000pt" height="1024.000000pt" viewBox="0 0 1024.000000 1024.000000"
 preserveAspectRatio="xMidYMid meet">

<g transform="translate(0.000000,1024.000000) scale(0.100000,-0.100000)"
fill="#000000" stroke="none">
<path d="M3989 7737 l-1126 -1132 181 -3 181 -3 949 951 950 951 951 -951 951
-950 174 2 175 3 -670 675 c-1120 1129 -1579 1590 -1585 1590 -3 -1 -512 -510
-1131 -1133z"/>
<path d="M3510 5387 l0 -1076 -32 -5 c-18 -3 -132 -22 -252 -41 -1021 -166
-2040 -482 -2809 -872 -157 -79 -187 -106 -187 -166 0 -38 47 -84 94 -92 32
-6 57 3 214 78 187 90 387 177 524 228 1021 382 2049 593 3288 676 318 21
1193 24 1500 5 1490 -91 2814 -405 3897 -923 155 -74 204 -81 253 -34 38 36
41 91 8 129 -26 29 -169 101 -443 223 -777 346 -1637 595 -2615 758 -118 20
-215 37 -217 39 -1 1 -3 484 -4 1074 l-1 1072 -42 0 c-80 -1 -167 -56 -209
-135 -22 -40 -22 -43 -27 -880 -5 -794 -6 -842 -24 -875 -38 -72 -108 -130
-180 -151 -17 -5 -526 -9 -1135 -9 l-1103 0 -58 26 c-66 29 -108 69 -142 134
l-23 45 -5 841 -5 841 -30 49 c-40 63 -104 103 -179 111 l-56 6 0 -1076z"/>
<path d="M2107 3324 c-4 -4 -7 -191 -7 -416 l1 -408 74 0 75 0 0 165 0 165 73
0 73 0 90 -162 89 -163 87 -3 87 -3 -98 172 -99 173 51 30 c40 24 58 44 80 86
26 50 28 63 24 132 -5 105 -38 160 -122 203 l-58 30 -206 3 c-114 2 -210 0
-214 -4z m388 -138 c62 -26 87 -126 44 -180 -36 -46 -69 -56 -184 -56 l-105 0
0 125 0 125 105 0 c69 0 118 -5 140 -14z"/>
<path d="M2870 2915 l0 -415 275 0 275 0 0 65 0 65 -205 0 -205 0 0 115 0 115
185 0 185 0 0 65 0 65 -185 0 -185 0 0 105 0 105 205 0 206 0 -3 63 -3 62
-272 3 -273 2 0 -415z"/>
<path d="M3560 2915 l0 -415 76 0 77 0 -5 307 c-4 231 -3 303 6 291 6 -10 94
-148 196 -307 l185 -291 78 0 77 0 0 415 0 416 -72 -3 -73 -3 0 -292 c0 -160
-2 -289 -5 -286 -3 2 -87 134 -186 291 l-181 287 -87 3 -86 3 0 -416z"/>
<path d="M4360 3265 l0 -65 130 0 130 0 0 -350 0 -350 70 0 70 0 0 350 0 350
125 0 125 0 0 65 0 65 -325 0 -325 0 0 -65z"/>
<path d="M5387 3323 c-4 -3 -7 -190 -7 -415 l0 -408 70 0 70 0 2 303 3 302 85
-134 c47 -74 133 -209 191 -300 l106 -166 76 -3 77 -3 0 416 0 415 -70 0 -70
0 -2 -296 -3 -296 -89 143 c-48 79 -132 212 -185 296 l-96 152 -76 1 c-42 0
-79 -3 -82 -7z"/>
<path d="M6230 2915 l0 -415 270 0 270 0 0 65 0 65 -200 0 -200 0 0 115 0 115
180 0 180 0 0 65 0 65 -180 0 -180 0 0 105 0 105 200 0 201 0 -3 63 -3 62
-267 3 -268 2 0 -415z"/>
<path d="M7095 3203 c-26 -70 -83 -229 -127 -353 -44 -124 -91 -252 -104 -284
-13 -33 -24 -61 -24 -63 0 -2 34 -3 76 -3 l75 0 13 33 c7 17 25 67 40 110 l28
77 152 0 153 0 38 -110 37 -110 74 0 c41 0 74 3 74 7 0 4 -20 61 -44 128 -25
66 -75 203 -111 305 -36 102 -83 230 -103 285 l-38 100 -81 3 -81 3 -47 -128z
m235 -354 c0 -5 -49 -9 -110 -9 l-110 0 51 148 c28 81 53 154 56 162 4 13 113
-277 113 -301z"/>
<path d="M7690 2916 l0 -416 75 0 75 0 0 165 0 166 73 -3 72 -3 90 -162 90
-163 83 0 c45 0 82 2 82 4 0 2 -43 79 -96 172 -53 92 -92 170 -87 171 6 2 31
17 57 33 60 38 96 109 96 190 0 112 -41 184 -129 227 -55 27 -61 28 -268 32
l-213 3 0 -416z m394 270 c60 -25 83 -112 46 -174 -29 -48 -72 -62 -190 -62
l-100 0 0 125 0 125 105 0 c67 0 118 -5 139 -14z"/>
</g>
</svg>
